STARTFONT 2.1
FONT -FontForge-Impact-Book-R-Normal--16-160-72-72-P-83-ISO10646-1
SIZE 16 72 72
FONTBOUNDINGBOX 22 25 -2 -5
COMMENT "Generated by fontforge, http://fontforge.sourceforge.net"
COMMENT "(c) 2006 The Monotype Corporation. All Rights Reserved."
STARTPROPERTIES 39
FOUNDRY "FontForge"
FAMILY_NAME "Impact"
WEIGHT_NAME "Book"
SLANT "R"
SETWIDTH_NAME "Normal"
ADD_STYLE_NAME ""
PIXEL_SIZE 16
POINT_SIZE 160
RESOLUTION_X 72
RESOLUTION_Y 72
SPACING "P"
AVERAGE_WIDTH 83
CHARSET_REGISTRY "ISO10646"
CHARSET_ENCODING "1"
FONTNAME_REGISTRY ""
CHARSET_COLLECTIONS "ASCII ISOLatin1Encoding ISO8859-2 ISO8859-5 ISO8859-7 ISO8859-9 ISO8859-4 ISO10646-1"
FONT_NAME "Impact"
FACE_NAME "Impact"
COPYRIGHT "(c) 2006 The Monotype Corporation. All Rights Reserved."
FONT_VERSION "5.00x"
FONT_ASCENT 13
FONT_DESCENT 3
UNDERLINE_POSITION -2
UNDERLINE_THICKNESS 1
X_HEIGHT 9
CAP_HEIGHT 12
RAW_ASCENT 799
RAW_DESCENT 200
NORM_SPACE 3
RELATIVE_WEIGHT 40
RELATIVE_SETWIDTH 30
SUPERSCRIPT_X 0
SUPERSCRIPT_Y 6
SUPERSCRIPT_SIZE 8
SUBSCRIPT_X 0
SUBSCRIPT_Y 0
SUBSCRIPT_SIZE 8
AVG_LOWERCASE_WIDTH 77
AVG_UPPERCASE_WIDTH 83
ENDPROPERTIES
CHARS 669
STARTCHAR space
ENCODING 32
SWIDTH 176 0
DWIDTH 3 0
BBX 1 1 0 0
BITMAP
00
ENDCHAR
STARTCHAR exclam
ENCODING 33
SWIDTH 270 0
DWIDTH 4 0
BBX 3 13 1 0
BITMAP
E0
E0
E0
E0
E0
E0
E0
E0
E0
00
E0
E0
E0
ENDCHAR
STARTCHAR quotedbl
ENCODING 34
SWIDTH 369 0
DWIDTH 6 0
BBX 5 3 0 10
BITMAP
D8
D8
D8
ENDCHAR
STARTCHAR numbersign
ENCODING 35
SWIDTH 626 0
DWIDTH 10 0
BBX 10 11 0 0
BITMAP
0880
0880
0880
1100
FFC0
1100
1100
FFC0
2200
2200
2200
ENDCHAR
STARTCHAR dollar
ENCODING 36
SWIDTH 547 0
DWIDTH 9 0
BBX 7 15 1 -1
BITMAP
10
7C
FE
EE
EE
F0
78
7C
1E
EE
EE
EE
7C
38
10
ENDCHAR
STARTCHAR percent
ENCODING 37
SWIDTH 692 0
DWIDTH 11 0
BBX 11 13 0 0
BITMAP
7080
D900
D900
DA00
DA00
DC00
75C0
0760
0B60
0B60
1360
1360
21C0
ENDCHAR
STARTCHAR ampersand
ENCODING 38
SWIDTH 576 0
DWIDTH 9 0
BBX 9 10 0 0
BITMAP
3C00
7E00
7600
7600
3400
7E00
FF80
E780
FF80
7F80
ENDCHAR
STARTCHAR quotesingle
ENCODING 39
SWIDTH 185 0
DWIDTH 3 0
BBX 2 3 0 10
BITMAP
C0
C0
C0
ENDCHAR
STARTCHAR parenleft
ENCODING 40
SWIDTH 313 0
DWIDTH 5 0
BBX 4 13 1 0
BITMAP
70
F0
E0
E0
E0
E0
E0
E0
E0
E0
E0
F0
70
ENDCHAR
STARTCHAR parenright
ENCODING 41
SWIDTH 313 0
DWIDTH 5 0
BBX 4 13 0 0
BITMAP
E0
F0
70
70
70
70
70
70
70
70
70
F0
E0
ENDCHAR
STARTCHAR asterisk
ENCODING 42
SWIDTH 280 0
DWIDTH 5 0
BBX 5 4 0 9
BITMAP
20
F8
70
50
ENDCHAR
STARTCHAR plus
ENCODING 43
SWIDTH 533 0
DWIDTH 9 0
BBX 8 8 0 2
BITMAP
18
18
18
FF
FF
18
18
18
ENDCHAR
STARTCHAR comma
ENCODING 44
SWIDTH 167 0
DWIDTH 3 0
BBX 2 4 0 -2
BITMAP
C0
C0
40
80
ENDCHAR
STARTCHAR hyphen
ENCODING 45
SWIDTH 294 0
DWIDTH 5 0
BBX 5 2 0 4
BITMAP
F8
F8
ENDCHAR
STARTCHAR period
ENCODING 46
SWIDTH 184 0
DWIDTH 3 0
BBX 2 3 0 0
BITMAP
C0
C0
C0
ENDCHAR
STARTCHAR slash
ENCODING 47
SWIDTH 395 0
DWIDTH 6 0
BBX 4 13 1 0
BITMAP
30
30
30
30
70
60
60
60
60
C0
C0
C0
C0
ENDCHAR
STARTCHAR zero
ENCODING 48
SWIDTH 536 0
DWIDTH 9 0
BBX 7 13 1 0
BITMAP
78
FE
EE
EE
EE
EE
EE
EE
EE
EE
EE
FE
7C
ENDCHAR
STARTCHAR one
ENCODING 49
SWIDTH 380 0
DWIDTH 6 0
BBX 5 13 0 0
BITMAP
08
38
F8
38
38
38
38
38
38
38
38
38
38
ENDCHAR
STARTCHAR two
ENCODING 50
SWIDTH 501 0
DWIDTH 8 0
BBX 6 13 1 0
BITMAP
78
FC
DC
DC
DC
1C
38
38
70
70
E0
FC
FC
ENDCHAR
STARTCHAR three
ENCODING 51
SWIDTH 530 0
DWIDTH 8 0
BBX 6 13 1 0
BITMAP
78
FC
DC
DC
1C
38
3C
1C
DC
DC
DC
FC
78
ENDCHAR
STARTCHAR four
ENCODING 52
SWIDTH 499 0
DWIDTH 8 0
BBX 8 13 0 0
BITMAP
1E
3E
3E
3E
6E
6E
6E
CE
FF
FF
FF
0E
0E
ENDCHAR
STARTCHAR five
ENCODING 53
SWIDTH 536 0
DWIDTH 9 0
BBX 7 13 1 0
BITMAP
FE
FE
E0
E0
FC
FE
EE
0E
EE
EE
EE
FE
7C
ENDCHAR
STARTCHAR six
ENCODING 54
SWIDTH 541 0
DWIDTH 9 0
BBX 7 13 1 0
BITMAP
7C
FE
EE
E0
FC
FE
EE
EE
EE
EE
EE
FE
7C
ENDCHAR
STARTCHAR seven
ENCODING 55
SWIDTH 391 0
DWIDTH 6 0
BBX 6 13 0 0
BITMAP
FC
FC
1C
1C
1C
18
38
38
38
38
30
70
70
ENDCHAR
STARTCHAR eight
ENCODING 56
SWIDTH 534 0
DWIDTH 9 0
BBX 7 13 1 0
BITMAP
7C
FE
EE
EE
EE
7C
FE
EE
EE
EE
EE
FE
7C
ENDCHAR
STARTCHAR nine
ENCODING 57
SWIDTH 541 0
DWIDTH 9 0
BBX 7 13 1 0
BITMAP
7C
FE
EE
EE
EE
EE
EE
FE
7E
0E
EE
FE
7C
ENDCHAR
STARTCHAR colon
ENCODING 58
SWIDTH 202 0
DWIDTH 3 0
BBX 2 8 1 0
BITMAP
C0
C0
C0
00
00
C0
C0
C0
ENDCHAR
STARTCHAR semicolon
ENCODING 59
SWIDTH 202 0
DWIDTH 3 0
BBX 2 10 1 -2
BITMAP
C0
C0
C0
00
00
00
C0
C0
40
80
ENDCHAR
STARTCHAR less
ENCODING 60
SWIDTH 533 0
DWIDTH 9 0
BBX 7 7 1 3
BITMAP
02
1E
7C
F0
7C
1E
02
ENDCHAR
STARTCHAR equal
ENCODING 61
SWIDTH 533 0
DWIDTH 9 0
BBX 7 5 1 4
BITMAP
FE
FE
00
FE
FE
ENDCHAR
STARTCHAR greater
ENCODING 62
SWIDTH 533 0
DWIDTH 9 0
BBX 7 7 1 3
BITMAP
80
F0
7C
1E
7C
F0
80
ENDCHAR
STARTCHAR question
ENCODING 63
SWIDTH 524 0
DWIDTH 8 0
BBX 7 13 0 0
BITMAP
78
FC
EE
EE
0E
0E
EE
FE
FC
00
E0
E0
E0
ENDCHAR
STARTCHAR at
ENCODING 64
SWIDTH 774 0
DWIDTH 12 0
BBX 12 14 0 -1
BITMAP
0F80
3040
6020
4ED0
99D0
B1D0
B190
B190
B1A0
B3A0
5FC0
6030
30E0
0F80
ENDCHAR
STARTCHAR A
ENCODING 65
SWIDTH 507 0
DWIDTH 7 0
BBX 7 13 0 0
BITMAP
38
38
38
6C
6C
6C
6C
6C
C6
FE
FE
C6
C6
ENDCHAR
STARTCHAR B
ENCODING 66
SWIDTH 552 0
DWIDTH 9 0
BBX 7 13 1 0
BITMAP
FC
FE
EE
EE
EE
F8
FE
EE
EE
EE
EE
FE
FC
ENDCHAR
STARTCHAR C
ENCODING 67
SWIDTH 553 0
DWIDTH 9 0
BBX 7 13 1 0
BITMAP
7C
FE
EE
EE
EE
E0
E0
EE
EE
EE
EE
FC
78
ENDCHAR
STARTCHAR D
ENCODING 68
SWIDTH 552 0
DWIDTH 9 0
BBX 7 13 1 0
BITMAP
FC
FE
EE
EE
EE
EE
EE
EE
EE
EE
EE
FE
FC
ENDCHAR
STARTCHAR E
ENCODING 69
SWIDTH 415 0
DWIDTH 7 0
BBX 6 13 1 0
BITMAP
F8
F8
E0
E0
E0
F8
F8
E0
E0
E0
E0
FC
FC
ENDCHAR
STARTCHAR F
ENCODING 70
SWIDTH 397 0
DWIDTH 6 0
BBX 5 13 1 0
BITMAP
F8
F8
E0
E0
E0
F8
F8
E0
E0
E0
E0
E0
E0
ENDCHAR
STARTCHAR G
ENCODING 71
SWIDTH 551 0
DWIDTH 9 0
BBX 7 13 1 0
BITMAP
78
FC
EE
EE
EE
E0
EE
EE
EE
EE
EE
FE
76
ENDCHAR
STARTCHAR H
ENCODING 72
SWIDTH 555 0
DWIDTH 9 0
BBX 7 13 1 0
BITMAP
EE
EE
EE
EE
EE
FE
FE
EE
EE
EE
EE
EE
EE
ENDCHAR
STARTCHAR I
ENCODING 73
SWIDTH 288 0
DWIDTH 5 0
BBX 3 13 1 0
BITMAP
E0
E0
E0
E0
E0
E0
E0
E0
E0
E0
E0
E0
E0
ENDCHAR
STARTCHAR J
ENCODING 74
SWIDTH 331 0
DWIDTH 5 0
BBX 4 13 0 0
BITMAP
70
70
70
70
70
70
70
70
70
70
70
F0
E0
ENDCHAR
STARTCHAR K
ENCODING 75
SWIDTH 536 0
DWIDTH 9 0
BBX 8 13 1 0
BITMAP
E7
E7
EE
EE
FC
FC
FC
FC
FC
EE
EE
E7
E7
ENDCHAR
STARTCHAR L
ENCODING 76
SWIDTH 380 0
DWIDTH 6 0
BBX 5 13 1 0
BITMAP
E0
E0
E0
E0
E0
E0
E0
E0
E0
E0
E0
F8
F8
ENDCHAR
STARTCHAR M
ENCODING 77
SWIDTH 716 0
DWIDTH 11 0
BBX 9 13 1 0
BITMAP
F780
F780
F780
F780
FB80
FB80
EB80
EB80
EB80
EB80
EB80
EB80
EB80
ENDCHAR
STARTCHAR N
ENCODING 78
SWIDTH 541 0
DWIDTH 9 0
BBX 7 13 1 0
BITMAP
E6
E6
E6
F6
F6
F6
FE
DE
DE
DE
CE
CE
CE
ENDCHAR
STARTCHAR O
ENCODING 79
SWIDTH 546 0
DWIDTH 9 0
BBX 7 13 1 0
BITMAP
7C
FC
EE
EE
EE
EE
EE
EE
EE
EE
EE
7E
7C
ENDCHAR
STARTCHAR P
ENCODING 80
SWIDTH 501 0
DWIDTH 8 0
BBX 6 13 1 0
BITMAP
F8
FC
EC
EC
EC
EC
FC
F8
E0
E0
E0
E0
E0
ENDCHAR
STARTCHAR Q
ENCODING 81
SWIDTH 546 0
DWIDTH 9 0
BBX 7 14 1 -1
BITMAP
78
7C
EE
EE
EE
EE
EE
EE
EE
EE
EE
FE
78
1E
ENDCHAR
STARTCHAR R
ENCODING 82
SWIDTH 538 0
DWIDTH 9 0
BBX 7 13 1 0
BITMAP
FC
FE
EE
EE
EE
FE
FC
EE
EE
EE
EE
EE
EE
ENDCHAR
STARTCHAR S
ENCODING 83
SWIDTH 517 0
DWIDTH 8 0
BBX 6 13 1 0
BITMAP
78
FC
EC
EC
E0
F0
78
1C
DC
DC
DC
FC
78
ENDCHAR
STARTCHAR T
ENCODING 84
SWIDTH 460 0
DWIDTH 7 0
BBX 7 13 0 0
BITMAP
FE
FE
38
38
38
38
38
38
38
38
38
38
38
ENDCHAR
STARTCHAR U
ENCODING 85
SWIDTH 546 0
DWIDTH 9 0
BBX 7 13 1 0
BITMAP
EE
EE
EE
EE
EE
EE
EE
EE
EE
EE
EE
FE
3C
ENDCHAR
STARTCHAR V
ENCODING 86
SWIDTH 523 0
DWIDTH 7 0
BBX 9 13 -1 0
BITMAP
E380
E380
E380
7700
7700
7700
7700
7700
7700
3600
3E00
3E00
3E00
ENDCHAR
STARTCHAR W
ENCODING 87
SWIDTH 814 0
DWIDTH 13 0
BBX 13 13 0 0
BITMAP
E738
E738
E738
6770
7770
7570
7570
7570
7570
3560
3DE0
38E0
38E0
ENDCHAR
STARTCHAR X
ENCODING 88
SWIDTH 482 0
DWIDTH 7 0
BBX 7 13 0 0
BITMAP
EE
EE
EE
6C
6C
7C
7C
6C
6C
EE
EE
EE
EE
ENDCHAR
STARTCHAR Y
ENCODING 89
SWIDTH 473 0
DWIDTH 8 0
BBX 7 13 0 0
BITMAP
EE
EE
6C
6C
6C
6C
38
38
38
38
38
38
38
ENDCHAR
STARTCHAR Z
ENCODING 90
SWIDTH 396 0
DWIDTH 6 0
BBX 6 13 0 0
BITMAP
FC
FC
1C
18
18
38
30
30
60
60
E0
FC
FC
ENDCHAR
STARTCHAR bracketleft
ENCODING 91
SWIDTH 282 0
DWIDTH 5 0
BBX 4 13 1 0
BITMAP
F0
F0
E0
E0
E0
E0
E0
E0
E0
E0
E0
F0
F0
ENDCHAR
STARTCHAR backslash
ENCODING 92
SWIDTH 395 0
DWIDTH 6 0
BBX 6 13 0 0
BITMAP
C0
C0
60
60
60
30
30
30
18
18
18
1C
0C
ENDCHAR
STARTCHAR bracketright
ENCODING 93
SWIDTH 282 0
DWIDTH 5 0
BBX 4 13 0 0
BITMAP
F0
F0
70
70
70
70
70
70
70
70
70
F0
F0
ENDCHAR
STARTCHAR asciicircum
ENCODING 94
SWIDTH 483 0
DWIDTH 8 0
BBX 7 7 1 6
BITMAP
10
38
38
7C
6C
6C
C6
ENDCHAR
STARTCHAR underscore
ENCODING 95
SWIDTH 552 0
DWIDTH 9 0
BBX 9 1 0 -2
BITMAP
FF80
ENDCHAR
STARTCHAR grave
ENCODING 96
SWIDTH 333 0
DWIDTH 5 0
BBX 4 2 0 12
BITMAP
E0
70
ENDCHAR
STARTCHAR a
ENCODING 97
SWIDTH 503 0
DWIDTH 8 0
BBX 7 10 0 0
BITMAP
7C
FE
EE
EE
3E
FE
EE
EE
FE
6E
ENDCHAR
STARTCHAR b
ENCODING 98
SWIDTH 519 0
DWIDTH 8 0
BBX 7 13 0 0
BITMAP
E0
E0
E0
EC
FE
EE
EE
EE
EE
EE
EE
FE
EC
ENDCHAR
STARTCHAR c
ENCODING 99
SWIDTH 494 0
DWIDTH 8 0
BBX 7 10 0 0
BITMAP
7C
FE
EE
EE
E0
EE
EE
EE
FC
78
ENDCHAR
STARTCHAR d
ENCODING 100
SWIDTH 519 0
DWIDTH 8 0
BBX 7 13 0 0
BITMAP
0E
0E
0E
6E
FE
EE
EE
EE
EE
EE
EE
FE
6E
ENDCHAR
STARTCHAR e
ENCODING 101
SWIDTH 511 0
DWIDTH 8 0
BBX 7 10 0 0
BITMAP
7C
FE
EE
FE
FE
E0
EE
EE
FE
7C
ENDCHAR
STARTCHAR f
ENCODING 102
SWIDTH 289 0
DWIDTH 5 0
BBX 4 13 0 0
BITMAP
70
F0
C0
F0
F0
E0
E0
E0
E0
E0
E0
E0
E0
ENDCHAR
STARTCHAR g
ENCODING 103
SWIDTH 518 0
DWIDTH 8 0
BBX 7 11 0 -1
BITMAP
EE
FE
EE
EE
EE
FE
6E
0E
EE
FE
7C
ENDCHAR
STARTCHAR h
ENCODING 104
SWIDTH 523 0
DWIDTH 8 0
BBX 7 13 0 0
BITMAP
E0
E0
E0
EC
FE
EE
EE
EE
EE
EE
EE
EE
EE
ENDCHAR
STARTCHAR i
ENCODING 105
SWIDTH 273 0
DWIDTH 4 0
BBX 3 13 0 0
BITMAP
E0
E0
00
E0
E0
E0
E0
E0
E0
E0
E0
E0
E0
ENDCHAR
STARTCHAR j
ENCODING 106
SWIDTH 279 0
DWIDTH 4 0
BBX 4 14 -1 -1
BITMAP
70
70
00
70
70
70
70
70
70
70
70
70
F0
E0
ENDCHAR
STARTCHAR k
ENCODING 107
SWIDTH 478 0
DWIDTH 8 0
BBX 7 13 0 0
BITMAP
E0
E0
E0
EE
EC
EC
FC
FC
EC
EC
EC
EE
EE
ENDCHAR
STARTCHAR l
ENCODING 108
SWIDTH 273 0
DWIDTH 4 0
BBX 3 13 0 0
BITMAP
E0
E0
E0
E0
E0
E0
E0
E0
E0
E0
E0
E0
E0
ENDCHAR
STARTCHAR m
ENCODING 109
SWIDTH 770 0
DWIDTH 12 0
BBX 11 10 0 0
BITMAP
ECC0
FFE0
EEE0
EEE0
EEE0
EEE0
EEE0
EEE0
EEE0
EEE0
ENDCHAR
STARTCHAR n
ENCODING 110
SWIDTH 522 0
DWIDTH 8 0
BBX 7 10 0 0
BITMAP
EC
FE
EE
EE
EE
EE
EE
EE
EE
EE
ENDCHAR
STARTCHAR o
ENCODING 111
SWIDTH 511 0
DWIDTH 8 0
BBX 7 10 0 0
BITMAP
7C
FE
EE
EE
EE
EE
EE
EE
FE
7C
ENDCHAR
STARTCHAR p
ENCODING 112
SWIDTH 519 0
DWIDTH 8 0
BBX 7 11 0 -1
BITMAP
EC
FE
EE
EE
EE
EE
EE
EE
FE
EC
E0
ENDCHAR
STARTCHAR q
ENCODING 113
SWIDTH 518 0
DWIDTH 8 0
BBX 7 11 0 -1
BITMAP
6E
FE
EE
EE
EE
EE
EE
EE
FE
6E
0E
ENDCHAR
STARTCHAR r
ENCODING 114
SWIDTH 357 0
DWIDTH 6 0
BBX 5 10 0 0
BITMAP
E8
F8
F8
E0
E0
E0
E0
E0
E0
E0
ENDCHAR
STARTCHAR s
ENCODING 115
SWIDTH 470 0
DWIDTH 8 0
BBX 7 10 0 0
BITMAP
7C
FE
EE
E0
78
3E
0E
EE
FE
7C
ENDCHAR
STARTCHAR t
ENCODING 116
SWIDTH 304 0
DWIDTH 5 0
BBX 4 12 0 0
BITMAP
E0
E0
F0
F0
E0
E0
E0
E0
E0
E0
F0
F0
ENDCHAR
STARTCHAR u
ENCODING 117
SWIDTH 522 0
DWIDTH 8 0
BBX 7 10 0 0
BITMAP
EE
EE
EE
EE
EE
EE
EE
EE
FE
6E
ENDCHAR
STARTCHAR v
ENCODING 118
SWIDTH 437 0
DWIDTH 8 0
BBX 7 10 0 0
BITMAP
EE
EE
EE
6C
6C
6C
6C
6C
38
38
ENDCHAR
STARTCHAR w
ENCODING 119
SWIDTH 669 0
DWIDTH 10 0
BBX 11 10 -1 0
BITMAP
EEE0
EEE0
EEE0
EEE0
6AC0
6AC0
6AC0
7BC0
7BC0
7BC0
ENDCHAR
STARTCHAR x
ENCODING 120
SWIDTH 433 0
DWIDTH 6 0
BBX 7 10 -1 0
BITMAP
EE
6C
6C
6C
38
38
6C
6C
6C
EE
ENDCHAR
STARTCHAR y
ENCODING 121
SWIDTH 448 0
DWIDTH 7 0
BBX 8 11 -1 -1
BITMAP
E7
E7
66
76
76
76
36
3E
3E
7C
7C
ENDCHAR
STARTCHAR z
ENCODING 122
SWIDTH 351 0
DWIDTH 6 0
BBX 4 10 0 0
BITMAP
F0
F0
70
70
70
E0
E0
E0
F0
F0
ENDCHAR
STARTCHAR braceleft
ENCODING 123
SWIDTH 369 0
DWIDTH 6 0
BBX 6 15 0 -2
BITMAP
1C
3C
30
30
30
30
E0
E0
70
30
30
30
30
3C
1C
ENDCHAR
STARTCHAR bar
ENCODING 124
SWIDTH 270 0
DWIDTH 4 0
BBX 2 15 1 -2
BITMAP
C0
C0
C0
C0
C0
C0
C0
C0
C0
C0
C0
C0
C0
C0
C0
ENDCHAR
STARTCHAR braceright
ENCODING 125
SWIDTH 369 0
DWIDTH 6 0
BBX 6 15 0 -2
BITMAP
E0
F0
30
30
30
30
1C
1C
38
30
30
30
30
F0
E0
ENDCHAR
STARTCHAR asciitilde
ENCODING 126
SWIDTH 524 0
DWIDTH 8 0
BBX 6 3 1 5
BITMAP
64
FC
98
ENDCHAR
ENDFONT
